<svg version="1.1" id="Layer_1" xmlns="http://www.w3.org/2000/svg" xmlns:xlink="http://www.w3.org/1999/xlink" x="0px" y="0px"
	 width="100%" viewBox="0 0 352 352" enable-background="new 0 0 352 352" xml:space="preserve">
<path fill="#000000" opacity="1.000000" stroke="none" 
	d="
M253.469406,154.136627 
	C256.238647,155.190079 256.324188,157.183685 256.322906,159.247726 
	C256.313934,173.739105 256.252594,188.230972 256.359955,202.721558 
	C256.388153,206.527206 254.869720,208.314575 251.071320,208.214172 
	C249.073898,208.161362 247.068283,208.301010 245.076416,208.183395 
	C241.732422,207.985931 239.371201,208.549149 238.864319,212.682831 
	C238.437683,216.162125 235.686905,217.438812 232.255936,217.400375 
	C226.593491,217.336929 220.920914,217.597473 215.269119,217.347626 
	C210.705429,217.145889 208.693359,218.460342 208.931076,223.493835 
	C209.339233,232.136749 209.146301,240.812256 209.064011,249.472733 
	C209.004807,255.703430 208.281738,256.318451 202.138153,256.358826 
	C200.139450,256.371979 198.140060,256.347290 196.142090,256.390472 
	C193.330063,256.451233 191.383865,257.321960 191.253387,260.686523 
	C191.098419,264.682434 188.151260,266.142181 184.759857,266.186432 
	C172.769257,266.342957 160.773422,266.382202 148.783783,266.195526 
	C143.809738,266.118073 141.760468,263.675354 141.718872,258.457642 
	C141.633881,247.797958 141.713196,237.137054 141.671783,226.476883 
	C141.645599,219.737625 139.416718,217.465317 132.717560,217.427994 
	C122.390656,217.370468 112.063026,217.446259 101.736122,217.389709 
	C96.112862,217.358917 94.186768,215.646286 94.093178,209.958618 
	C93.915047,199.134766 93.912338,188.304733 94.058228,177.480240 
	C94.134148,171.847672 95.808578,170.137939 101.541595,169.753677 
	C104.576477,169.550247 105.744308,168.272583 105.633385,165.429947 
	C105.620415,165.097565 105.637077,164.763748 105.646782,164.430801 
	C105.954933,153.864624 105.955048,153.857803 116.432022,153.818771 
	C123.094658,153.793961 129.759583,153.685699 136.419189,153.823181 
	C140.185211,153.900940 141.878799,152.585220 141.741898,148.595215 
	C141.519257,142.106781 141.761490,135.603806 141.660355,129.109268 
	C141.590439,124.619217 143.095398,121.612694 148.046753,121.425476 
	C151.887238,121.280266 153.324936,119.219734 152.967239,115.564003 
	C152.870361,114.573936 152.934036,113.566383 152.950607,112.567299 
	C153.053543,106.361038 153.688522,105.688042 159.866394,105.676392 
	C174.024612,105.649704 188.184952,105.803970 202.340027,105.591614 
	C206.997650,105.521736 209.095627,107.056999 209.022400,111.848312 
	C208.882431,121.006889 209.067383,130.170074 208.982712,139.330093 
	C208.958511,141.949387 209.004715,145.301849 205.170700,145.072159 
	C201.803711,144.870422 201.960388,141.762634 201.945297,139.271240 
	C201.900894,131.942642 201.824936,124.610886 201.995209,117.285797 
	C202.079361,113.665993 200.803238,112.244736 197.069717,112.307755 
	C186.578934,112.484848 176.083176,112.393005 165.589523,112.359695 
	C162.391586,112.349541 160.038849,112.943977 160.135223,116.993866 
	C160.228348,120.908028 162.703629,121.068398 165.551422,121.074242 
	C171.713181,121.086884 177.885406,120.930161 184.033554,121.237938 
	C189.877914,121.530510 191.283310,123.202858 191.325836,129.033203 
	C191.387558,137.492706 191.341644,145.952988 191.341644,154.998276 
	C212.250458,153.007965 232.643707,153.951096 253.469406,154.136627 
M203.612564,169.682297 
	C212.758377,169.681534 221.904434,169.640884 231.049942,169.694107 
	C237.078629,169.729202 239.113434,171.728424 239.206314,177.764984 
	C239.306061,184.248749 239.391174,190.738876 239.209930,197.218613 
	C239.093201,201.391754 241.510345,201.618530 244.666962,201.647324 
	C247.830704,201.676178 249.717957,200.949722 249.679184,197.252991 
	C249.564072,186.279297 249.610596,175.303391 249.668732,164.328751 
	C249.683029,161.629196 248.763977,160.493637 245.853790,160.544556 
	C232.889557,160.771423 219.921173,160.750732 206.955856,160.931961 
	C203.142136,160.985275 199.303650,161.204666 195.536880,161.758499 
	C193.955490,161.990997 191.561539,162.266174 191.673767,164.836227 
	C191.770676,167.055328 193.182693,168.717010 195.245667,169.146225 
	C197.648376,169.646149 200.179245,169.530075 203.612564,169.682297 
M191.847107,221.770691 
	C190.732300,229.547470 191.726685,237.372009 191.312363,245.159073 
	C191.094772,249.248291 193.343399,249.688385 196.614716,249.723343 
	C200.011978,249.759644 202.003815,248.965988 201.920105,245.056961 
	C201.774063,238.238693 201.982285,231.412964 201.844971,224.594330 
	C201.798492,222.286652 203.030365,219.216995 199.848770,218.032150 
	C196.612930,216.827103 194.030685,218.218704 191.847107,221.770691 
M138.857056,161.068420 
	C131.255447,160.995163 123.653877,160.876892 116.052246,160.873611 
	C113.472061,160.872498 112.199608,162.192856 112.317780,164.958481 
	C112.419014,167.327835 112.721039,169.480087 115.599121,169.528305 
	C122.544403,169.644684 129.497116,169.702667 136.438004,169.492493 
	C138.938721,169.416779 140.587112,167.469620 141.383301,165.155594 
	C141.955215,163.493439 141.841873,161.824677 138.857056,161.068420 
z"/>
</svg>